<svg data-v-423bf9ae="" xmlns="http://www.w3.org/2000/svg" viewBox="0 0 629 91" class="iconLeft"><!----><!----><!----><g data-v-423bf9ae="" id="a101850c-0567-4817-8191-27007e4a4c3f" fill="#23073F" transform="matrix(4.803843162490988,0,0,4.803843162490988,105.10009199690774,-5.704564232295205)"><path d="M7.69 5.67L7.69 4.31L1.02 4.31L1.02 14L7.69 14L7.69 12.64L2.55 12.64L2.55 9.76L7.27 9.76L7.27 8.46L2.55 8.46L2.55 5.67ZM16.09 14L13.38 10.53L16.06 7.11L14.39 7.11L12.35 9.74L10.30 7.11L8.65 7.11L11.33 10.54L8.61 14L10.28 14L12.35 11.31L14.43 14ZM21.20 6.99C20.16 6.99 19.28 7.41 18.68 8.11L18.68 7.11L17.25 7.11L17.25 16.80L18.68 16.80L18.68 13.01C19.28 13.71 20.16 14.13 21.20 14.13C23.14 14.13 24.56 12.63 24.56 10.56C24.56 8.48 23.14 6.99 21.20 6.99ZM20.89 12.88C19.60 12.88 18.68 11.91 18.68 10.56C18.68 9.21 19.60 8.23 20.89 8.23C22.16 8.23 23.09 9.21 23.09 10.56C23.09 11.91 22.16 12.88 20.89 12.88ZM32.86 10.57C32.84 8.48 31.32 6.99 29.19 6.99C27.06 6.99 25.51 8.48 25.51 10.56C25.51 12.63 27.06 14.13 29.19 14.13C30.88 14.13 32.35 13.03 32.75 11.51L31.29 11.51C31.02 12.33 30.18 12.95 29.20 12.95C28.01 12.95 27.10 12.15 26.92 11.00L32.82 11.00C32.84 10.86 32.86 10.71 32.86 10.57ZM29.20 8.16C30.34 8.16 31.25 8.88 31.49 9.90L26.96 9.90C27.22 8.86 28.08 8.16 29.20 8.16ZM37.80 6.99C36.85 6.99 36.08 7.41 35.63 8.15L35.63 7.11L34.20 7.11L34.20 14L35.63 14L35.63 9.97C35.63 8.86 36.32 8.13 37.38 8.13C38.42 8.13 39.09 8.86 39.09 9.97L39.09 14L40.53 14L40.53 9.77C40.53 8.11 39.38 6.99 37.80 6.99ZM44.77 6.99C43.16 6.99 42.07 7.81 42.07 9.06C42.07 10.68 43.71 10.99 44.74 11.14C45.53 11.28 46.21 11.40 46.21 12.11C46.21 12.68 45.64 13.06 44.84 13.06C43.99 13.06 43.37 12.63 43.34 11.97L41.94 11.97C41.96 13.24 43.13 14.13 44.80 14.13C46.45 14.13 47.63 13.27 47.63 12.03C47.63 10.37 45.89 10.08 44.91 9.90C44.11 9.74 43.48 9.63 43.48 8.92C43.48 8.40 44.02 8.04 44.74 8.04C45.54 8.04 46.09 8.46 46.12 9.07L47.46 9.07C47.46 7.84 46.34 6.99 44.77 6.99ZM56.01 10.57C56 8.48 54.47 6.99 52.35 6.99C50.22 6.99 48.66 8.48 48.66 10.56C48.66 12.63 50.22 14.13 52.35 14.13C54.04 14.13 55.51 13.03 55.90 11.51L54.45 11.51C54.18 12.33 53.34 12.95 52.36 12.95C51.17 12.95 50.26 12.15 50.08 11.00L55.97 11.00C56 10.86 56.01 10.71 56.01 10.57ZM52.36 8.16C53.49 8.16 54.40 8.88 54.64 9.90L50.12 9.90C50.37 8.86 51.24 8.16 52.36 8.16ZM68.00 4.31L60.54 4.31L60.54 5.67L63.50 5.67L63.50 14L65.03 14L65.03 5.67L68.00 5.67ZM69.52 8.72L69.52 7.11L68.10 7.11L68.10 14L69.52 14L69.52 10.60C69.52 9.18 70.52 8.34 72.11 8.34L72.11 6.93C70.90 6.93 69.99 7.59 69.52 8.72ZM78.47 7.11L78.47 8.11C77.87 7.41 76.99 6.99 75.96 6.99C74.02 6.99 72.59 8.48 72.59 10.56C72.59 12.63 74.02 14.13 75.96 14.13C76.99 14.13 77.87 13.71 78.47 13.01L78.47 14L79.90 14L79.90 7.11ZM76.26 12.88C74.98 12.88 74.06 11.91 74.06 10.56C74.06 9.21 74.98 8.23 76.26 8.23C77.55 8.23 78.47 9.21 78.47 10.56C78.47 11.91 77.55 12.88 76.26 12.88ZM88.52 11.14L87.08 11.14C86.87 12.15 86.02 12.88 84.94 12.88C83.65 12.88 82.73 11.91 82.73 10.56C82.73 9.21 83.65 8.23 84.94 8.23C86.00 8.23 86.87 8.97 87.07 9.97L88.52 9.97C88.31 8.25 86.81 6.99 84.94 6.99C82.81 6.99 81.26 8.48 81.26 10.56C81.26 12.63 82.81 14.13 84.94 14.13C86.81 14.13 88.31 12.88 88.52 11.14ZM95.90 7.11L94.21 7.11L91.28 10.19L91.28 4.31L89.85 4.31L89.85 14L91.28 14L91.28 10.65L94.21 14L95.90 14L92.72 10.40ZM103.66 10.57C103.64 8.48 102.12 6.99 99.99 6.99C97.86 6.99 96.31 8.48 96.31 10.56C96.31 12.63 97.86 14.13 99.99 14.13C101.68 14.13 103.15 13.03 103.54 11.51L102.09 11.51C101.82 12.33 100.98 12.95 100.00 12.95C98.81 12.95 97.90 12.15 97.72 11.00L103.61 11.00C103.64 10.86 103.66 10.71 103.66 10.57ZM100.00 8.16C101.14 8.16 102.05 8.88 102.28 9.90L97.76 9.90C98.01 8.86 98.88 8.16 100.00 8.16ZM106.43 8.72L106.43 7.11L105 7.11L105 14L106.43 14L106.43 10.60C106.43 9.18 107.42 8.34 109.02 8.34L109.02 6.93C107.80 6.93 106.89 7.59 106.43 8.72Z"></path></g><defs data-v-423bf9ae=""><linearGradient data-v-423bf9ae="" gradientTransform="rotate(25)" id="b0158bf9-7736-4aed-9e78-0afde50f7cca" x1="0%" y1="0%" x2="100%" y2="0%"><stop data-v-423bf9ae="" offset="0%" style="stop-color: rgb(233, 13, 202); stop-opacity: 1;"></stop><stop data-v-423bf9ae="" offset="100%" style="stop-color: rgb(21, 54, 241); stop-opacity: 1;"></stop></linearGradient></defs><g data-v-423bf9ae="" id="52ff8842-5a4f-48c8-8c83-65d7a5cfeb6d" transform="matrix(1.004464302820211,0,0,1.004464302820211,-5.022767943957334,-4.021875084244783)" stroke="none" fill="url(#b0158bf9-7736-4aed-9e78-0afde50f7cca)"><path d="M49.9 4.9C25.3 4.9 5.1 25.1 5.1 49.7c0 24.8 20.2 44.8 44.8 44.8 24.6 0 44.8-20 44.8-44.8 0-24.6-20.2-44.8-44.8-44.8zm0 82.6c-20.9 0-37.8-17-37.8-37.8s17-37.8 37.8-37.8 37.8 17 37.8 37.8-17 37.8-37.8 37.8z"></path><path d="M45.4 56l6.3 19.2 14-46.4-40.5 26.6z"></path></g><!----></svg>